<?xml version="1.0" encoding="UTF-8"?>
<svg version="1.1" xmlns="http://www.w3.org/2000/svg" width="376" height="284">
<path d="M0 0 C124.08 0 248.16 0 376 0 C376 93.72 376 187.44 376 284 C251.92 284 127.84 284 0 284 C0 190.28 0 96.56 0 0 Z " fill="#010101" transform="translate(0,0)"/>
<path d="M0 0 C4.70029811 4.14073881 7.71204728 7.49069775 8.4375 13.8125 C8.18938387 19.77856507 5.71305963 24.37050425 1.4375 28.4375 C-2.54292956 30.98905741 -5.73202038 31.186252 -10.375 31.25 C-11.49648438 31.27578125 -12.61796875 31.3015625 -13.7734375 31.328125 C-18.01732088 30.89654364 -20.51107061 29.44381032 -23.546875 26.5 C-27.74469616 21.26635283 -28.47102716 17.37093332 -28.41015625 10.796875 C-27.74179129 6.23926253 -25.49576739 3.83375139 -22 1 C-15.6406037 -3.58468105 -6.91607737 -3.34761392 0 0 Z " fill="#040404" transform="translate(329,134)"/>
<path d="M0 0 C3.63 0 7.26 0 11 0 C10.01 0.495 10.01 0.495 9 1 C9.76782912 3.81335018 10.53918765 6.62565654 11.3125 9.4375 C11.52583984 10.22060547 11.73917969 11.00371094 11.95898438 11.81054688 C13.46456953 17.27110197 15.15702139 22.64406869 17 28 C17.26216309 27.18732666 17.52432617 26.37465332 17.79443359 25.53735352 C18.76873701 22.52933716 19.74972952 19.52361193 20.73535156 16.51928711 C21.16091034 15.21743458 21.58377487 13.91469816 22.00390625 12.61108398 C22.60752213 10.73973238 23.2215777 8.87175822 23.8359375 7.00390625 C24.20251465 5.87799072 24.5690918 4.7520752 24.94677734 3.59204102 C26 1 26 1 28 0 C31.65224626 8.91148088 35.06273801 17.82129703 38 27 C39.17117205 23.20970992 40.33617215 19.41755098 41.5 15.625 C41.83386719 14.54476562 42.16773438 13.46453125 42.51171875 12.3515625 C42.98544922 10.8046875 42.98544922 10.8046875 43.46875 9.2265625 C43.76201172 8.27346191 44.05527344 7.32036133 44.35742188 6.33837891 C45.08832466 4.08275837 45.08832466 4.08275837 45 2 C44.34 1.34 43.68 0.68 43 0 C46.3 0 49.6 0 53 0 C51.68 0.99 50.36 1.98 49 3 C47.97574819 4.9367723 47.97574819 4.9367723 47.40234375 7.1328125 C47.15806641 7.93976563 46.91378906 8.74671875 46.66210938 9.578125 C46.42298828 10.41859375 46.18386719 11.2590625 45.9375 12.125 C45.44732592 13.77364916 44.95644248 15.42208758 44.46484375 17.0703125 C44.22660889 17.88540283 43.98837402 18.70049316 43.74291992 19.5402832 C42.783618 22.71641429 41.71318883 25.84939664 40.62011719 28.98168945 C39.70215151 31.96941474 39.33018722 34.89624017 39 38 C38.34 38 37.68 38 37 38 C36.80365967 37.43603516 36.60731934 36.87207031 36.4050293 36.29101562 C35.50015965 33.69367013 34.59383858 31.09683327 33.6875 28.5 C33.2244043 27.1696875 33.2244043 27.1696875 32.75195312 25.8125 C30.90158202 20.51459536 28.99190371 15.24636792 27 10 C22.8533851 18.91522203 20.24737583 28.44865273 18 38 C17.34 38 16.68 38 16 38 C15.72027344 37.14921875 15.44054688 36.2984375 15.15234375 35.421875 C14.04661426 32.07979872 12.9282999 28.74233631 11.8046875 25.40625 C11.24446077 23.7310089 10.69021887 22.05375946 10.140625 20.375 C9.25200603 17.66237367 8.34598118 14.9560305 7.4375 12.25 C7.15704834 11.38084961 6.87659668 10.51169922 6.58764648 9.61621094 C6.30993408 8.79926758 6.03222168 7.98232422 5.74609375 7.140625 C5.50560303 6.41391602 5.2651123 5.68720703 5.01733398 4.93847656 C3.90464296 2.48103249 3.90464296 2.48103249 0 0 Z " fill="#D7D7D7" transform="translate(43,127)"/>
<path d="M0 0 C0.66 0 1.32 0 2 0 C2.43082886 0.99797607 2.43082886 0.99797607 2.87036133 2.01611328 C4.18264806 5.0531726 5.4975499 8.08909295 6.8125 11.125 C7.26431641 12.17171875 7.71613281 13.2184375 8.18164062 14.296875 C10.86343781 20.52232748 10.86343781 20.52232748 13.82421875 26.6171875 C15 29 15 29 15 31 C16.32 31.66 17.64 32.32 19 33 C15.37 33 11.74 33 8 33 C8.185625 32.113125 8.37125 31.22625 8.5625 30.3125 C9.22048893 26.70354365 9.22048893 26.70354365 8 22 C3.05 22 -1.9 22 -7 22 C-7.66 25.3 -8.32 28.6 -9 32 C-8.34 32.33 -7.68 32.66 -7 33 C-10.3 33 -13.6 33 -17 33 C-15.68 32.34 -14.36 31.68 -13 31 C-12.0362039 29.16927565 -12.0362039 29.16927565 -11.5390625 26.9921875 C-9.98990195 21.75774379 -7.76868505 17.020472 -5.375 12.125 C-4.56883731 10.46165166 -3.76408652 8.79761808 -2.9609375 7.1328125 C-2.60821777 6.40980957 -2.25549805 5.68680664 -1.89208984 4.94189453 C-0.89261487 2.85896263 -0.89261487 2.85896263 0 0 Z " fill="#CBCBCB" transform="translate(184,132)"/>
<path d="M0 0 C2.49553159 3.0588334 4.03482332 6.08440102 5.55859375 9.71875 C6.02716797 10.81574219 6.49574219 11.91273438 6.97851562 13.04296875 C7.95058232 15.34625931 8.91933835 17.6509499 9.88476562 19.95703125 C10.58956055 21.60251953 10.58956055 21.60251953 11.30859375 23.28125 C11.93979126 24.78268555 11.93979126 24.78268555 12.58374023 26.31445312 C14.05622939 29.10662356 15.66152785 30.90307336 18 33 C14.37 33 10.74 33 7 33 C7.66 31.68 8.32 30.36 9 29 C8.34 26.69 7.68 24.38 7 22 C2.05 22 -2.9 22 -8 22 C-8.185625 23.44375 -8.37125 24.8875 -8.5625 26.375 C-8.71912109 27.59316406 -8.71912109 27.59316406 -8.87890625 28.8359375 C-9.18237328 31.04899186 -9.18237328 31.04899186 -8 33 C-11.3 33 -14.6 33 -18 33 C-16.68 32.34 -15.36 31.68 -14 31 C-12.83871183 28.19257441 -12.83871183 28.19257441 -12 25 C-11.17190292 23.05452659 -10.31534876 21.12096787 -9.43359375 19.19921875 C-8.94826172 18.14025391 -8.46292969 17.08128906 -7.96289062 15.99023438 C-7.45951172 14.90033203 -6.95613281 13.81042969 -6.4375 12.6875 C-5.93025391 11.57826172 -5.42300781 10.46902344 -4.90039062 9.32617188 C-1.1319533 1.1319533 -1.1319533 1.1319533 0 0 Z " fill="#D2D2D2" transform="translate(111,132)"/>
<path d="M0 0 C2.70894767 -0.08144943 5.41541263 -0.14070614 8.125 -0.1875 C8.88554687 -0.21263672 9.64609375 -0.23777344 10.4296875 -0.26367188 C15.37336847 -0.32759878 18.73436658 0.21891074 23 3 C25.26612757 6.39919136 25.2102096 8.0864836 24.625 12.05859375 C23.64427814 15.10496102 21.64529895 16.37212373 19 18 C20.41621379 21.12688787 22.12331976 23.53900915 24.375 26.125 C24.96023437 26.80820313 25.54546875 27.49140625 26.1484375 28.1953125 C28.00671761 30.00654755 29.6282627 30.98652635 32 32 C32 32.33 32 32.66 32 33 C29.04713054 33.43212724 26.86325775 33.52143086 24.25390625 31.9453125 C20.31686228 28.70097783 17.28301599 24.99575592 14.359375 20.83203125 C13.03188967 19.04297774 11.61280975 17.53216927 10 16 C13.02734375 15.75585938 13.02734375 15.75585938 16.0546875 15.51171875 C18.39519216 15.12606964 18.39519216 15.12606964 20 12 C20.58333333 9 20.58333333 9 20 6 C16.3770453 2.81619133 12.65787511 2.59800752 8 2 C8.09347301 6.09381399 8.19955156 10.18708609 8.31738281 14.28027344 C8.35569327 15.67308572 8.39054259 17.06599765 8.421875 18.45898438 C8.46747907 20.45986308 8.52651623 22.46042146 8.5859375 24.4609375 C8.6173584 25.66540527 8.6487793 26.86987305 8.68115234 28.11083984 C8.70915226 31.1260018 8.70915226 31.1260018 11 33 C7.37 33 3.74 33 0 33 C0.99 32.34 1.98 31.68 3 31 C3.51184645 27.99585431 3.51184645 27.99585431 3.51171875 24.4609375 C3.56489258 22.50800781 3.56489258 22.50800781 3.61914062 20.515625 C3.64224231 19.13542191 3.66502464 17.75521343 3.6875 16.375 C3.72066445 14.98694648 3.7551533 13.59892393 3.79101562 12.2109375 C3.87374115 8.80737293 3.94281257 5.4040741 4 2 C2.68 1.34 1.36 0.68 0 0 Z " fill="#C0C0C0" transform="translate(208,132)"/>
<path d="M0 0 C0.99 0.33 1.98 0.66 3 1 C4.1875 3.5625 4.1875 3.5625 5 6 C8.465 5.505 8.465 5.505 12 5 C11.67 9.29 11.34 13.58 11 18 C4.4 18 -2.2 18 -9 18 C-11.25 9 -11.25 9 -11 4 C-10.236875 4.309375 -9.47375 4.61875 -8.6875 4.9375 C-6.81210323 5.67893593 -4.91315348 6.36228217 -3 7 C-2.690625 6.030625 -2.38125 5.06125 -2.0625 4.0625 C-1 1 -1 1 0 0 Z " fill="#A6A9C8" transform="translate(189,94)"/>
<path d="M0 0 C4.70029811 4.14073881 7.71204728 7.49069775 8.4375 13.8125 C8.18938387 19.77856507 5.71305963 24.37050425 1.4375 28.4375 C-2.54292956 30.98905741 -5.73202038 31.186252 -10.375 31.25 C-11.49648438 31.27578125 -12.61796875 31.3015625 -13.7734375 31.328125 C-18.01732088 30.89654364 -20.51107061 29.44381032 -23.546875 26.5 C-27.74469616 21.26635283 -28.47102716 17.37093332 -28.41015625 10.796875 C-27.74179129 6.23926253 -25.49576739 3.83375139 -22 1 C-15.6406037 -3.58468105 -6.91607737 -3.34761392 0 0 Z M-23 6 C-25.09305576 10.18611152 -24.42364608 15.44132948 -24 20 C-21.73191149 24.88511372 -18.78893551 27.5585819 -14 30 C-9.20216135 30.69786744 -5.71575518 30.03180454 -1.578125 27.39453125 C2.34803938 23.92512362 3.77657528 19.56397306 4.5 14.5 C3.72580988 9.08066918 1.89303493 4.83567023 -2.0625 1 C-10.44511982 -1.85365781 -17.27784839 -0.94575635 -23 6 Z " fill="#D6D6D6" transform="translate(329,134)"/>
<path d="M0 0 C7.92 0 15.84 0 24 0 C22.36770135 4.08074662 20.87736218 6.88368054 18.4375 10.4375 C15.22624512 15.16894526 12.08347168 19.93426852 9 24.75 C8.60224365 25.37060303 8.2044873 25.99120605 7.79467773 26.63061523 C6.86224883 28.08652022 5.93098936 29.54317406 5 31 C7.71152807 30.96678529 10.41509346 30.89941312 13.125 30.8125 C13.88554687 30.80669922 14.64609375 30.80089844 15.4296875 30.79492188 C21.267389 30.56845932 23.8735968 29.1329949 28 25 C26.125 31.875 26.125 31.875 25 33 C23.07332493 33.08748207 21.14348139 33.10697334 19.21484375 33.09765625 C17.46010742 33.09282227 17.46010742 33.09282227 15.66992188 33.08789062 C13.82237305 33.07532227 13.82237305 33.07532227 11.9375 33.0625 C10.08415039 33.05573242 10.08415039 33.05573242 8.19335938 33.04882812 C5.12885883 33.03699608 2.06445279 33.02051173 -1 33 C4.82396861 22.64652947 11.34011086 12.82977968 18 3 C15.37438891 2.91925797 12.75124324 2.8596377 10.125 2.8125 C9.37863281 2.78736328 8.63226563 2.76222656 7.86328125 2.73632812 C5.43778172 2.6701236 5.43778172 2.6701236 2 3 C1.34 3.99 0.68 4.98 0 6 C0 4.02 0 2.04 0 0 Z " fill="#D6D6D6" transform="translate(135,132)"/>
<path d="M0 0 C4.29 0 8.58 0 13 0 C12.34 1.32 11.68 2.64 11 4 C12.30088348 7.1332402 12.30088348 7.1332402 14.375 10.25 C15.04273438 11.32765625 15.71046875 12.4053125 16.3984375 13.515625 C16.92695313 14.33546875 17.45546875 15.1553125 18 16 C18.9893091 14.61133677 19.96603078 13.21370149 20.9375 11.8125 C21.48277344 11.03519531 22.02804687 10.25789062 22.58984375 9.45703125 C24.06297862 6.89026717 24.68949643 4.93253376 25 2 C24.67 1.34 24.34 0.68 24 0 C27.63 0 31.26 0 35 0 C34.28457031 0.51433594 33.56914062 1.02867187 32.83203125 1.55859375 C26.7838468 6.77254586 21.02464881 14.45845761 19.25 22.32421875 C19.19069287 25.10053385 19.21020867 27.33864257 20 30 C20.99 30.99 21.98 31.98 23 33 C19.37 33 15.74 33 12 33 C13.32 32.34 14.64 31.68 16 31 C16.52383339 22.86517556 14.47854368 17.1431221 10.25 10.375 C9.60442139 9.32699219 9.60442139 9.32699219 8.94580078 8.2578125 C6.43280465 4.43708064 4.64538191 2.15299047 0 1 C0 0.67 0 0.34 0 0 Z " fill="#D1D1D1" transform="translate(262,132)"/>
<path d="M0 0 C3.96 0 7.92 0 12 0 C10.02 0.99 10.02 0.99 8 2 C8.06877778 6.09398801 8.15669235 10.1870691 8.26245117 14.28027344 C8.29572873 15.67306089 8.32375197 17.06598411 8.34643555 18.45898438 C8.37992689 20.45991378 8.43381305 22.46046921 8.48828125 24.4609375 C8.51446533 25.66540527 8.54064941 26.86987305 8.56762695 28.11083984 C8.71031006 29.0642627 8.85299316 30.01768555 9 31 C9.99 31.66 10.98 32.32 12 33 C8.04 33 4.08 33 0 33 C1.32 32.34 2.64 31.68 4 31 C4 21.43 4 11.86 4 2 C2.68 1.34 1.36 0.68 0 0 Z " fill="#C9C9C9" transform="translate(245,132)"/>
<path d="M0 0 C3 1.25 3 1.25 5 4.25 C4.88674794 11.38488006 4.88674794 11.38488006 1.4375 14.75 C0.2309375 15.4925 0.2309375 15.4925 -1 16.25 C0.41621379 19.37688787 2.12331976 21.78900915 4.375 24.375 C4.96023437 25.05820313 5.54546875 25.74140625 6.1484375 26.4453125 C8.00671761 28.25654755 9.6282627 29.23652635 12 30.25 C12 30.58 12 30.91 12 31.25 C9.04713054 31.68212724 6.86325775 31.77143086 4.25390625 30.1953125 C0.31686228 26.95097783 -2.71698401 23.24575592 -5.640625 19.08203125 C-6.96811033 17.29297774 -8.38719025 15.78216927 -10 14.25 C-6.97265625 14.00585938 -6.97265625 14.00585938 -3.9453125 13.76171875 C-1.60480784 13.37606964 -1.60480784 13.37606964 0 10.25 C0.58345476 7.29253508 0.58345476 7.29253508 0 4.25 C-2.37842577 1.84593616 -2.37842577 1.84593616 -5 0.25 C-3 -0.75 -3 -0.75 0 0 Z " fill="#D0D0D0" transform="translate(228,133.75)"/>
<path d="M0 0 C3.63 0 7.26 0 11 0 C10.01 0.495 10.01 0.495 9 1 C12.67675185 14.59815083 12.67675185 14.59815083 17 28 C17.66 28 18.32 28 19 28 C18.67 31.3 18.34 34.6 18 38 C17.34 38 16.68 38 16 38 C15.72027344 37.14921875 15.44054688 36.2984375 15.15234375 35.421875 C14.04661426 32.07979872 12.9282999 28.74233631 11.8046875 25.40625 C11.24446077 23.7310089 10.69021887 22.05375946 10.140625 20.375 C9.25200603 17.66237367 8.34598118 14.9560305 7.4375 12.25 C7.15704834 11.38084961 6.87659668 10.51169922 6.58764648 9.61621094 C6.30993408 8.79926758 6.03222168 7.98232422 5.74609375 7.140625 C5.50560303 6.41391602 5.2651123 5.68720703 5.01733398 4.93847656 C3.90464296 2.48103249 3.90464296 2.48103249 0 0 Z " fill="#DBDBDB" transform="translate(43,127)"/>
<path d="M0 0 C0.66 0 1.32 0 2 0 C2.67119549 1.4562545 3.33681807 2.91507867 4 4.375 C4.556875 5.59316406 4.556875 5.59316406 5.125 6.8359375 C6 9 6 9 6 11 C5.01 11.33 4.02 11.66 3 12 C2.01 10.68 1.02 9.36 0 8 C-0.34933594 8.77085937 -0.69867188 9.54171875 -1.05859375 10.3359375 C-1.51363281 11.33882812 -1.96867188 12.34171875 -2.4375 13.375 C-2.88996094 14.37273437 -3.34242188 15.37046875 -3.80859375 16.3984375 C-4.51597316 17.94307583 -5.24022461 19.48044922 -6 21 C-1.71 21 2.58 21 7 21 C7 21.33 7 21.66 7 22 C2.38 22 -2.24 22 -7 22 C-7.66 25.3 -8.32 28.6 -9 32 C-8.34 32.33 -7.68 32.66 -7 33 C-10.3 33 -13.6 33 -17 33 C-15.68 32.34 -14.36 31.68 -13 31 C-12.0362039 29.16927565 -12.0362039 29.16927565 -11.5390625 26.9921875 C-9.98990195 21.75774379 -7.76868505 17.020472 -5.375 12.125 C-4.56883731 10.46165166 -3.76408652 8.79761808 -2.9609375 7.1328125 C-2.60821777 6.40980957 -2.25549805 5.68680664 -1.89208984 4.94189453 C-0.89261487 2.85896263 -0.89261487 2.85896263 0 0 Z " fill="#CECECE" transform="translate(184,132)"/>
<path d="M0 0 C3 2 3 2 4 5 C5.98 4.67 7.96 4.34 10 4 C9.67 6.64 9.34 9.28 9 12 C3.72 12 -1.56 12 -7 12 C-8.35439668 9.29120665 -8.06501451 6.99066732 -8 4 C-6.02 4.66 -4.04 5.32 -2 6 C-1.855625 5.195625 -1.71125 4.39125 -1.5625 3.5625 C-1 1 -1 1 0 0 Z " fill="#0A0A0C" transform="translate(189,98)"/>
<path d="M0 0 C4.30347069 3.61294244 5.23674676 8.83184396 7 14 C3.04 14 -0.92 14 -5 14 C-1.85714286 4.42857143 -1.85714286 4.42857143 0 0 Z " fill="#0D0D0D" transform="translate(110,138)"/>
<path d="M0 0 C3.40198926 4.04998722 6 8.63626649 6 14 C2.37 14 -1.26 14 -5 14 C-2.05357143 3.82142857 -2.05357143 3.82142857 0 0 Z " fill="#0C0C0C" transform="translate(184,138)"/>
<path d="M0 0 C2.28783297 0.91513319 3.73449728 1.65484646 5.25 3.625 C6.99033478 9.13606013 6.53226404 13.43547192 4 18.5 C3.34897292 19.67546556 2.68771754 20.84561699 2 22 C1.01 21.67 0.02 21.34 -1 21 C-0.67 19.989375 -0.34 18.97875 0 17.9375 C1.72022864 11.87399906 1.00466481 6.15357197 0 0 Z " fill="#DBDBDB" transform="translate(331,138)"/>
<path d="M0 0 C3.3 0 6.6 0 10 0 C8.68 0.99 7.36 1.98 6 3 C4.85844679 5.362468 4.85844679 5.362468 4.1484375 8.0703125 C3.85453125 9.04871094 3.560625 10.02710938 3.2578125 11.03515625 C2.96648437 12.05480469 2.67515625 13.07445312 2.375 14.125 C1.78541702 16.15042083 1.18939906 18.17398329 0.5859375 20.1953125 C0.3286084 21.09266113 0.0712793 21.99000977 -0.19384766 22.91455078 C-1 25 -1 25 -3 26 C-2.33040613 19.59205863 -0.96493862 13.65670589 0.80273438 7.47265625 C1.28697192 5.66917082 1.65358491 3.83495022 2 2 C1.34 1.34 0.68 0.68 0 0 Z " fill="#D9D9D9" transform="translate(86,127)"/>
<path d="M0 0 C0.33 0.66 0.66 1.32 1 2 C0.01 3.98 -0.98 5.96 -2 8 C-10.58 8 -19.16 8 -28 8 C-28 7.67 -28 7.34 -28 7 C-26.35 7 -24.7 7 -23 7 C-22.67 6.34 -22.34 5.68 -22 5 C-20.83082031 5.05800781 -19.66164062 5.11601562 -18.45703125 5.17578125 C-16.9088942 5.22269449 -15.36071383 5.26819298 -13.8125 5.3125 C-13.04357422 5.35439453 -12.27464844 5.39628906 -11.48242188 5.43945312 C-7.03371827 5.53491887 -5.52445124 5.43312555 -1.94921875 2.48046875 C-1.30597656 1.66191406 -0.66273438 0.84335938 0 0 Z " fill="#AAAAAA" transform="translate(162,157)"/>
<path d="M0 0 C7.92 0 15.84 0 24 0 C23.67 0.99 23.34 1.98 23 3 C20.4375 4.1875 20.4375 4.1875 18 5 C18 4.34 18 3.68 18 3 C15.37438891 2.91925797 12.75124324 2.8596377 10.125 2.8125 C9.37863281 2.78736328 8.63226563 2.76222656 7.86328125 2.73632812 C5.43778172 2.6701236 5.43778172 2.6701236 2 3 C1.34 3.99 0.68 4.98 0 6 C0 4.02 0 2.04 0 0 Z " fill="#BDBDBD" transform="translate(135,132)"/>
<path d="M0 0 C1.32 0.33 2.64 0.66 4 1 C3.67 1.66 3.34 2.32 3 3 C-0.01253622 9.45543475 -1.97919167 16.17848964 -4 23 C-4.66 22.34 -5.32 21.68 -6 21 C-4.83106855 13.752625 -2.41110672 6.91730131 0 0 Z " fill="#CECECE" transform="translate(67,134)"/>
<path d="M0 0 C0.66 0 1.32 0 2 0 C2.66 1.98 3.32 3.96 4 6 C4.33 4.02 4.66 2.04 5 0 C5.66 0 6.32 0 7 0 C7.66 1.65 8.32 3.3 9 5 C9.28875 4.360625 9.5775 3.72125 9.875 3.0625 C11 1 11 1 13 0 C12.5205537 4.21912747 11.83374881 6.79663178 9 10 C8.34 9.01 7.68 8.02 7 7 C6.01 8.32 5.02 9.64 4 11 C3.32880451 9.5437455 2.66318193 8.08492133 2 6.625 C1.62875 5.81289062 1.2575 5.00078125 0.875 4.1640625 C0 2 0 2 0 0 Z " fill="#C1C1C1" transform="translate(178,188)"/>
<path d="M0 0 C1.37562854 1.28965176 2.70766393 2.62689293 4 4 C4 4.66 4 5.32 4 6 C5.175625 4.7934375 5.175625 4.7934375 6.375 3.5625 C9 1 9 1 11 0 C11 3.63 11 7.26 11 11 C10.34 11 9.68 11 9 11 C8.67 9.68 8.34 8.36 8 7 C7.01 7.66 6.02 8.32 5 9 C4.01 7.68 3.02 6.36 2 5 C1.67 6.98 1.34 8.96 1 11 C0.67 11 0.34 11 0 11 C0 7.37 0 3.74 0 0 Z " fill="#BABABA" transform="translate(240,188)"/>
<path d="M0 0 C1.40378906 -0.02126953 1.40378906 -0.02126953 2.8359375 -0.04296875 C8.12746559 0.39428637 11.11673411 2.28942678 14.625 6.1875 C13.965 6.1875 13.305 6.1875 12.625 6.1875 C12.295 6.8475 11.965 7.5075 11.625 8.1875 C11.00625 7.548125 10.3875 6.90875 9.75 6.25 C7.20439465 3.77926539 6.42258276 3.19543051 2.875 3.16015625 C0.70825984 3.22005412 -1.45840995 3.28255439 -3.625 3.34765625 C-6.375 3.1875 -6.375 3.1875 -8.375 1.1875 C-5.33978606 0.17576202 -3.17766921 0.02176486 0 0 Z " fill="#BFBFBF" transform="translate(318.375,131.8125)"/>
<path d="M0 0 C2.72107452 2.3500189 3.96702492 4.55674975 5 8 C4.67 8.99 4.34 9.98 4 11 C3.67 10.01 3.34 9.02 3 8 C1.35 8 -0.3 8 -2 8 C-2 8.99 -2 9.98 -2 11 C-2.66 11 -3.32 11 -4 11 C-3.52269162 9.5410574 -3.04308958 8.08286504 -2.5625 6.625 C-2.29566406 5.81289062 -2.02882812 5.00078125 -1.75390625 4.1640625 C-1 2 -1 2 0 0 Z " fill="#AAAAAA" transform="translate(157,188)"/>
<path d="M0 0 C2.96052484 3.36423277 3.92289822 6.69159287 5 11 C4.34 11 3.68 11 3 11 C2.67 10.34 2.34 9.68 2 9 C0.68 9 -0.64 9 -2 9 C-2.66 9.66 -3.32 10.32 -4 11 C-3.48964169 6.6109185 -2.47785723 3.66291938 0 0 Z " fill="#9D9D9D" transform="translate(199,188)"/>
<path d="M0 0 C0.99 0.495 0.99 0.495 2 1 C2 1.66 2 2.32 2 3 C10.415 2.505 10.415 2.505 19 2 C19 2.99 19 3.98 19 5 C12.73 5 6.46 5 0 5 C0 3.35 0 1.7 0 0 Z " fill="#B0B2D3" transform="translate(180,107)"/>
<path d="M0 0 C1.65 0 3.3 0 5 0 C5.33 0.66 5.66 1.32 6 2 C4.35 2 2.7 2 1 2 C1 2.66 1 3.32 1 4 C3.475 4.99 3.475 4.99 6 6 C6 7.32 6 8.64 6 10 C4.02 10.33 2.04 10.66 0 11 C-0.33 10.34 -0.66 9.68 -1 9 C0.65 9 2.3 9 4 9 C3.154375 8.2575 2.30875 7.515 1.4375 6.75 C0.633125 5.8425 -0.17125 4.935 -1 4 C-0.8125 1.6875 -0.8125 1.6875 0 0 Z " fill="#AEAEAE" transform="translate(221,188)"/>
<path d="M0 0 C1.65 0 3.3 0 5 0 C5 0.66 5 1.32 5 2 C3.35 2 1.7 2 0 2 C0 2.66 0 3.32 0 4 C2.475 4.99 2.475 4.99 5 6 C4.67 7.65 4.34 9.3 4 11 C2.35 11 0.7 11 -1 11 C-1.33 10.34 -1.66 9.68 -2 9 C-0.35 9 1.3 9 3 9 C1.35 7.35 -0.3 5.7 -2 4 C-1.34 2.68 -0.68 1.36 0 0 Z " fill="#A9A9A9" transform="translate(136,188)"/>
<path d="M0 0 C0.33 0.99 0.66 1.98 1 3 C-0.21484375 5.26171875 -0.21484375 5.26171875 -1.9375 7.6875 C-2.78634766 8.89986328 -2.78634766 8.89986328 -3.65234375 10.13671875 C-4.09707031 10.75160156 -4.54179687 11.36648437 -5 12 C-6.32 11.67 -7.64 11.34 -9 11 C-8.06981474 9.53699018 -7.13055973 8.07974421 -6.1875 6.625 C-5.66542969 5.81289062 -5.14335937 5.00078125 -4.60546875 4.1640625 C-3 2 -3 2 0 0 Z " fill="#E6E6E6" transform="translate(144,152)"/>
<path d="M0 0 C0.99 0.33 1.98 0.66 3 1 C2.67 3.31 2.34 5.62 2 8 C2.66 8.33 3.32 8.66 4 9 C0.7 9 -2.6 9 -6 9 C-4.68 8.34 -3.36 7.68 -2 7 C-0.70079254 3.45411499 -0.70079254 3.45411499 0 0 Z " fill="#BEBEBE" transform="translate(173,156)"/>
<path d="M0 0 C2.475 0.495 2.475 0.495 5 1 C4.67 4.3 4.34 7.6 4 11 C3.34 11 2.68 11 2 11 C0.80712589 7.12315913 0 4.08378077 0 0 Z " fill="#D4D4D4" transform="translate(57,154)"/>
<path d="M0 0 C0.66 0 1.32 0 2 0 C2 2.97 2 5.94 2 9 C3.98 9 5.96 9 8 9 C8 9.66 8 10.32 8 11 C5.36 11 2.72 11 0 11 C0 7.37 0 3.74 0 0 Z " fill="#9B9B9B" transform="translate(167,188)"/>
<path d="M0 0 C0.66 0 1.32 0 2 0 C2.66 1.32 3.32 2.64 4 4 C4.99 2.68 5.98 1.36 7 0 C7.66 0.33 8.32 0.66 9 1 C8.2884375 2.0828125 8.2884375 2.0828125 7.5625 3.1875 C6.05847097 5.89475226 5.43400818 7.96194275 5 11 C4.34 11 3.68 11 3 11 C2.01 7.37 1.02 3.74 0 0 Z " fill="#B8B8B8" transform="translate(207,188)"/>
<path d="M0 0 C0.66 0.33 1.32 0.66 2 1 C2.625 4.0625 2.625 4.0625 3 7 C-0.3 7 -3.6 7 -7 7 C-5.68 6.34 -4.36 5.68 -3 5 C-2.34786708 2.97536745 -2.34786708 2.97536745 -2 1 C-1.34 0.67 -0.68 0.34 0 0 Z " fill="#BABABA" transform="translate(100,158)"/>
<path d="M0 0 C0.33 0.66 0.66 1.32 1 2 C0.67 2.66 0.34 3.32 0 4 C4.29 4 8.58 4 13 4 C13 4.33 13 4.66 13 5 C8.38 5 3.76 5 -1 5 C-1.33 5.99 -1.66 6.98 -2 8 C-2.66 8 -3.32 8 -4 8 C-3.50168276 4.31245243 -2.89932357 2.39509338 0 0 Z " fill="#E1E1E1" transform="translate(178,149)"/>
<path d="M0 0 C5 2 5 2 7 5 C5.68 4.67 4.36 4.34 3 4 C2.67 6.31 2.34 8.62 2 11 C1.67 11 1.34 11 1 11 C0.67 7.37 0.34 3.74 0 0 Z " fill="#A1A4C1" transform="translate(178,98)"/>
<path d="M0 0 C3.63 0 7.26 0 11 0 C6.5 4 6.5 4 2 4 C1.34 2.68 0.68 1.36 0 0 Z " fill="#A8A8A8" transform="translate(286,132)"/>
<path d="M0 0 C0.99 0.33 1.98 0.66 3 1 C2.01 4.3 1.02 7.6 0 11 C-0.66 10.34 -1.32 9.68 -2 9 C-1.7578125 6.8359375 -1.7578125 6.8359375 -1.125 4.375 C-0.92132813 3.55773437 -0.71765625 2.74046875 -0.5078125 1.8984375 C-0.34023438 1.27195313 -0.17265625 0.64546875 0 0 Z " fill="#B4B4B4" transform="translate(63,146)"/>
<path d="M0 0 C0.66 0 1.32 0 2 0 C2 0.99 2 1.98 2 3 C1.34 3 0.68 3 0 3 C-0.66 5.31 -1.32 7.62 -2 10 C-2.66 10 -3.32 10 -4 10 C-4.33 9.01 -4.66 8.02 -5 7 C-4.34 7 -3.68 7 -3 7 C-2.690625 6.030625 -2.38125 5.06125 -2.0625 4.0625 C-1 1 -1 1 0 0 Z " fill="#B4B6D7" transform="translate(189,94)"/>
<path d="M0 0 C0.33 0.99 0.66 1.98 1 3 C-1.52788007 5.79872437 -3.20411134 7.45773019 -7 8 C-5.08864614 4.46399535 -3.37357234 2.21027154 0 0 Z " fill="#DCDCDC" transform="translate(148,146)"/>
<path d="M0 0 C1.74627478 2.61941217 2.38722388 4.03824877 3 7 C2.34 7 1.68 7 1 7 C0.67 6.34 0.34 5.68 0 5 C-1.32 5 -2.64 5 -4 5 C-4.66 5.66 -5.32 6.32 -6 7 C-5.67 5.68 -5.34 4.36 -5 3 C-3.35 3 -1.7 3 0 3 C0 2.01 0 1.02 0 0 Z " fill="#C0C0C0" transform="translate(201,192)"/>
<path d="M0 0 C0.66 0 1.32 0 2 0 C2.33 2.31 2.66 4.62 3 7 C2.67 6.34 2.34 5.68 2 5 C1.34 5 0.68 5 0 5 C-0.33 5.66 -0.66 6.32 -1 7 C-0.67 4.69 -0.34 2.38 0 0 Z " fill="#D6D6D6" transform="translate(184,132)"/>
</svg>
